# xmcd CD database file
# Copyright (C) 1995-1998 Ti Kan
#
# Track frame offsets:
#	180
#	16904
#	38347
#	60295
#	88440
#	109796
#	125107
#	146703
#	165003
#	199954
#	219825
#
# Disc length: 3251 seconds
#
# Revision: 1
# Processed by: cddbd v1.4b42PL1 Copyright (c) Steve Scherf et al.
# Submitted via: CDex 1.30Release
#
DISCID=8e0cb10b
DTITLE=Dave Viterna and New Rage - 104 Blues
DYEAR=1998
DGENRE=Blues
TTITLE0=Roadrunner
TTITLE1=Little Miss Perfection
TTITLE2=Hold That Train
TTITLE3=104 Blues
TTITLE4=Hear Me Talkin'
TTITLE5=You Ain't Got Nothin'
TTITLE6=What Am I Supposed To Do?
TTITLE7=Keep On Rockin'
TTITLE8=Squirrel Song
TTITLE9=It's Gonna Be All Right
TTITLE10=Country Road Blues
EXTD=YEAR: 1998 ID3G:   0
EXTT0=
EXTT1=
EXTT2=
EXTT3=
EXTT4=
EXTT5=
EXTT6=
EXTT7=
EXTT8=
EXTT9=
EXTT10=
PLAYORDER=
